<svg xmlns="http://www.w3.org/2000/svg" width="17" height="16" viewBox="0 0 17 16" fill="none">
  <path fill-rule="evenodd" clip-rule="evenodd" d="M2.5 3.5C2.5 3.22386 2.72386 3 3 3H14C14.2761 3 14.5 3.22386 14.5 3.5C14.5 3.77614 14.2761 4 14 4H3C2.72386 4 2.5 3.77614 2.5 3.5Z" fill="#8047F8"/>
  <path fill-rule="evenodd" clip-rule="evenodd" d="M7 6C7.27614 6 7.5 6.22386 7.5 6.5V10.5C7.5 10.7761 7.27614 11 7 11C6.72386 11 6.5 10.7761 6.5 10.5V6.5C6.5 6.22386 6.72386 6 7 6Z" fill="#8047F8"/>
  <path fill-rule="evenodd" clip-rule="evenodd" d="M10 6C10.2761 6 10.5 6.22386 10.5 6.5V10.5C10.5 10.7761 10.2761 11 10 11C9.72386 11 9.5 10.7761 9.5 10.5V6.5C9.5 6.22386 9.72386 6 10 6Z" fill="#8047F8"/>
  <path fill-rule="evenodd" clip-rule="evenodd" d="M4 3C4.27614 3 4.5 3.22386 4.5 3.5V13H12.5V3.5C12.5 3.22386 12.7239 3 13 3C13.2761 3 13.5 3.22386 13.5 3.5V13C13.5 13.2652 13.3946 13.5196 13.2071 13.7071C13.0196 13.8946 12.7652 14 12.5 14H4.5C4.23478 14 3.98043 13.8946 3.79289 13.7071C3.60536 13.5196 3.5 13.2652 3.5 13V3.5C3.5 3.22386 3.72386 3 4 3Z" fill="#4B2995"/>
  <path fill-rule="evenodd" clip-rule="evenodd" d="M5.93934 1.43934C6.22064 1.15804 6.60218 1 7 1H10C10.3978 1 10.7794 1.15804 11.0607 1.43934C11.342 1.72064 11.5 2.10217 11.5 2.5V3.5C11.5 3.77614 11.2761 4 11 4C10.7239 4 10.5 3.77614 10.5 3.5V2.5C10.5 2.36739 10.4473 2.24021 10.3536 2.14645C10.2598 2.05268 10.1326 2 10 2H7C6.86739 2 6.74022 2.05268 6.64645 2.14645C6.55268 2.24021 6.5 2.36739 6.5 2.5V3.5C6.5 3.77614 6.27614 4 6 4C5.72386 4 5.5 3.77614 5.5 3.5V2.5C5.5 2.10217 5.65804 1.72064 5.93934 1.43934Z" fill="#8047F8"/>
</svg>