<svg xmlns="http://www.w3.org/2000/svg" width="17" height="17" viewBox="0 0 17 17" fill="none">
  <g clip-path="url(#clip0_26566_528)">
    <path fill-rule="evenodd" clip-rule="evenodd" d="M8.40499 2.07417C8.56569 1.97528 8.76838 1.97528 8.92908 2.07417L15.4291 6.07417C15.6196 6.19141 15.7091 6.42093 15.6481 6.63617C15.5872 6.85141 15.3907 7 15.167 7H2.16703C1.94334 7 1.74686 6.85141 1.68593 6.63617C1.62501 6.42093 1.71447 6.19141 1.90499 6.07417L8.40499 2.07417ZM3.93356 6H13.4005L8.66704 3.08709L3.93356 6Z" fill="#8047F8"/>
    <path fill-rule="evenodd" clip-rule="evenodd" d="M4.16699 6C4.44313 6 4.66699 6.22386 4.66699 6.5V11.5C4.66699 11.7761 4.44313 12 4.16699 12C3.89085 12 3.66699 11.7761 3.66699 11.5V6.5C3.66699 6.22386 3.89085 6 4.16699 6Z" fill="#8047F8"/>
    <path fill-rule="evenodd" clip-rule="evenodd" d="M7.16699 6C7.44313 6 7.66699 6.22386 7.66699 6.5V11.5C7.66699 11.7761 7.44313 12 7.16699 12C6.89085 12 6.66699 11.7761 6.66699 11.5V6.5C6.66699 6.22386 6.89085 6 7.16699 6Z" fill="#8047F8"/>
    <path fill-rule="evenodd" clip-rule="evenodd" d="M10.167 6C10.4431 6 10.667 6.22386 10.667 6.5V11.5C10.667 11.7761 10.4431 12 10.167 12C9.89085 12 9.66699 11.7761 9.66699 11.5V6.5C9.66699 6.22386 9.89085 6 10.167 6Z" fill="#8047F8"/>
    <path fill-rule="evenodd" clip-rule="evenodd" d="M13.167 6C13.4431 6 13.667 6.22386 13.667 6.5V11.5C13.667 11.7761 13.4431 12 13.167 12C12.8908 12 12.667 11.7761 12.667 11.5V6.5C12.667 6.22386 12.8908 6 13.167 6Z" fill="#8047F8"/>
    <path fill-rule="evenodd" clip-rule="evenodd" d="M2.16699 11.5C2.16699 11.2239 2.39085 11 2.66699 11H14.667C14.9431 11 15.167 11.2239 15.167 11.5C15.167 11.7761 14.9431 12 14.667 12H2.66699C2.39085 12 2.16699 11.7761 2.16699 11.5Z" fill="#8047F8"/>
    <path fill-rule="evenodd" clip-rule="evenodd" d="M1.16699 13.5C1.16699 13.2239 1.39085 13 1.66699 13H15.667C15.9431 13 16.167 13.2239 16.167 13.5C16.167 13.7761 15.9431 14 15.667 14H1.66699C1.39085 14 1.16699 13.7761 1.16699 13.5Z" fill="#8047F8"/>
  </g>
  <defs>
    <clipPath id="clip0_26566_528">
      <rect width="16" height="16" fill="white" transform="translate(0.666992 0.5)"/>
    </clipPath>
  </defs>
</svg>